HIERARCHY
ROOT hip
{
  OFFSET 0 0 0
  CHANNELS 6 Xposition Yposition Zposition Zrotation Yrotation Xrotation
  JOINT abdomen
  {
    OFFSET 0 20.6881 -0.73152
    CHANNELS 3 Zrotation Xrotation Yrotation
    JOINT chest
    {
      OFFSET 0 11.7043 -0.48768
      CHANNELS 3 Zrotation Xrotation Yrotation
      JOINT neck
      {
        OFFSET 0 22.1894 -2.19456
        CHANNELS 3 Zrotation Xrotation Yrotation
        JOINT head
        {
          OFFSET -0.24384 7.07133 1.2192
          CHANNELS 3 Zrotation Xrotation Yrotation
          JOINT leftEye
          {
            OFFSET 4.14528 8.04674 8.04672
            CHANNELS 3 Zrotation Xrotation Yrotation
            End Site
            {
              OFFSET 1 0 0
            }
          }
          JOINT rightEye
          {
            OFFSET -3.6576 8.04674 8.04672
            CHANNELS 3 Zrotation Xrotation Yrotation
            End Site
            {
              OFFSET 1 0 0
            }
          }
        }
      }
      JOINT rCollar
      {
        OFFSET -2.68224 19.2634 -4.8768
        CHANNELS 3 Zrotation Xrotation Yrotation
        JOINT rShldr
        {
          OFFSET -8.77824 -1.95073 1.46304
          CHANNELS 3 Zrotation Xrotation Yrotation
          JOINT rForeArm
          {
            OFFSET -28.1742 -1.7115 0.48768
            CHANNELS 3 Zrotation Xrotation Yrotation
            JOINT rHand
            {
              OFFSET -22.5879 0.773209 7.07136
              CHANNELS 3 Zrotation Xrotation Yrotation
              JOINT rThumb1
              {
                OFFSET -1.2192 -0.487915 3.41376
                CHANNELS 3 Zrotation Xrotation Yrotation
                JOINT rThumb2
                {
                  OFFSET -3.37035 -0.52449 3.41376
                  CHANNELS 3 Zrotation Xrotation Yrotation
                  End Site
                  {
                    OFFSET -1.78271 -1.18214 1.43049
                  }
                }
              }
              JOINT rIndex1
              {
                OFFSET -7.75947 0.938293 5.60832
                CHANNELS 3 Zrotation Xrotation Yrotation
                JOINT rIndex2
                {
                  OFFSET -2.54057 -0.884171 1.56538
                  CHANNELS 3 Zrotation Xrotation Yrotation
                  End Site
                  {
                    OFFSET -1.62519 -0.234802 1.16502
                  }
                }
              }
              JOINT rMid1
              {
                OFFSET -8.24714 1.18213 3.41376
                CHANNELS 3 Zrotation Xrotation Yrotation
                JOINT rMid2
                {
                  OFFSET -3.10165 -0.590103 1.0647
                  CHANNELS 3 Zrotation Xrotation Yrotation
                  End Site
                  {
                    OFFSET -2.48547 -0.328903 0.83742
                  }
                }
              }
              JOINT rRing1
              {
                OFFSET -8.82822 0.546677 1.51678
                CHANNELS 3 Zrotation Xrotation Yrotation
                JOINT rRing2
                {
                  OFFSET -2.60934 -0.819778 -0.0198488
                  CHANNELS 3 Zrotation Xrotation Yrotation
                  End Site
                  {
                    OFFSET -2.33842 -0.294052 0.168128
                  }
                }
              }
              JOINT rPinky1
              {
                OFFSET -8.27202 -0.0477905 -0.4584
                CHANNELS 3 Zrotation Xrotation Yrotation
                JOINT rPinky2
                {
                  OFFSET -1.82734 -0.647385 -0.700984
                  CHANNELS 3 Zrotation Xrotation Yrotation
                  End Site
                  {
                    OFFSET -1.69225 -0.51767 -0.607171
                  }
                }
              }
            }
          }
        }
      }
      JOINT lCollar
      {
        OFFSET 2.68224 19.2634 -4.8768
        CHANNELS 3 Zrotation Xrotation Yrotation
        JOINT lShldr
        {
          OFFSET 8.77824 -1.95073 1.46304
          CHANNELS 3 Zrotation Xrotation Yrotation
          JOINT lForeArm
          {
            OFFSET 28.1742 -1.7115 0.48768
            CHANNELS 3 Zrotation Xrotation Yrotation
            JOINT lHand
            {
              OFFSET 22.5879 0.773209 7.07136
              CHANNELS 3 Zrotation Xrotation Yrotation
              JOINT lThumb1
              {
                OFFSET 1.2192 -0.487915 3.41376
                CHANNELS 3 Zrotation Xrotation Yrotation
                JOINT lThumb2
                {
                  OFFSET 3.37035 -0.52449 3.41376
                  CHANNELS 3 Zrotation Xrotation Yrotation
                  End Site
                  {
                    OFFSET 1.78271 -1.18214 1.43049
                  }
                }
              }
              JOINT lIndex1
              {
                OFFSET 7.75947 0.938293 5.60832
                CHANNELS 3 Zrotation Xrotation Yrotation
                JOINT lIndex2
                {
                  OFFSET 2.54057 -0.884171 1.56538
                  CHANNELS 3 Zrotation Xrotation Yrotation
                  End Site
                  {
                    OFFSET 1.62519 -0.234802 1.16502
                  }
                }
              }
              JOINT lMid1
              {
                OFFSET 8.24714 1.18213 3.41376
                CHANNELS 3 Zrotation Xrotation Yrotation
                JOINT lMid2
                {
                  OFFSET 3.10165 -0.590103 1.0647
                  CHANNELS 3 Zrotation Xrotation Yrotation
                  End Site
                  {
                    OFFSET 2.48547 -0.328903 0.83742
                  }
                }
              }
              JOINT lRing1
              {
                OFFSET 8.82822 0.546677 1.51678
                CHANNELS 3 Zrotation Xrotation Yrotation
                JOINT lRing2
                {
                  OFFSET 2.60934 -0.819778 -0.0198488
                  CHANNELS 3 Zrotation Xrotation Yrotation
                  End Site
                  {
                    OFFSET 2.33842 -0.294052 0.168128
                  }
                }
              }
              JOINT lPinky1
              {
                OFFSET 8.27202 -0.0477905 -0.4584
                CHANNELS 3 Zrotation Xrotation Yrotation
                JOINT lPinky2
                {
                  OFFSET 1.82734 -0.647385 -0.700984
                  CHANNELS 3 Zrotation Xrotation Yrotation
                  End Site
                  {
                    OFFSET 1.69225 -0.51767 -0.607171
                  }
                }
              }
            }
          }
        }
      }
    }
  }
  JOINT rButtock
  {
    OFFSET -8.77824 4.35084 1.2192
    CHANNELS 3 Zrotation Xrotation Yrotation
    JOINT rThigh
    {
      OFFSET 0 -1.70687 -2.19456
      CHANNELS 3 Zrotation Xrotation Yrotation
      JOINT rShin
      {
        OFFSET 0 -36.8199 0.73152
        CHANNELS 3 Zrotation Xrotation Yrotation
        JOINT rFoot
        {
          OFFSET 0.73152 -45.1104 -5.12064
          CHANNELS 3 Zrotation Xrotation Yrotation
          End Site
          {
            OFFSET -1.1221 -3.69964 12.103
          }
        }
      }
    }
  }
  JOINT lButtock
  {
    OFFSET 8.77824 4.35084 1.2192
    CHANNELS 3 Zrotation Xrotation Yrotation
    JOINT lThigh
    {
      OFFSET 0 -1.70687 -2.19456
      CHANNELS 3 Zrotation Xrotation Yrotation
      JOINT lShin
      {
        OFFSET 0 -36.8199 0.73152
        CHANNELS 3 Zrotation Xrotation Yrotation
        JOINT lFoot
        {
          OFFSET -0.73152 -45.1104 -5.12064
          CHANNELS 3 Zrotation Xrotation Yrotation
          End Site
          {
            OFFSET 1.1221 -3.69964 12.103
          }
        }
      }
    }
  }
}
MOTION
Frames:	5
Frame Time:	0.03333
0.0 0.0 0.0 0.0 0.0 0.0 0.0 0.0 0.0 0.0 0.0 0.0 0.0 0.0 0.0 0.0 0.0 0.0 0.0 0.0 0.0 0.0 0.0 0.0 0.0 0.0 0.0 0.0 0.0 0.0 0.0 0.0 0.0 0.0 0.0 0.0 0.0 0.0 0.0 0.0 0.0 0.0 0.0 0.0 0.0 0.0 0.0 0.0 0.0 0.0 0.0 0.0 0.0 0.0 0.0 0.0 0.0 0.0 0.0 0.0 0.0 0.0 0.0 0.0 0.0 0.0 0.0 0.0 0.0 0.0 0.0 0.0 0.0 0.0 0.0 0.0 0.0 0.0 0.0 0.0 0.0 0.0 0.0 0.0 0.0 0.0 0.0 0.0 0.0 0.0 0.0 0.0 0.0 0.0 0.0 0.0 0.0 0.0 0.0 0.0 0.0 0.0 0.0 0.0 0.0 0.0 0.0 0.0 0.0 0.0 0.0 0.0 0.0 0.0 0.0 0.0 0.0 0.0 0.0 0.0 0.0 0.0 0.0 0.0 0.0 0.0 0.0 0.0 0.0 0.0 0.0 0.0
0.0038000000000000004 60.3035 0.0379 -0.355476 -4.771765 -1.125175 -0.094422 4.324109 7.18306 -10.505659 -2.306799 81.614331 -10.526215 -6.259263 -93.475131 45.392342 -10.402152 60.791612 -147.951631 -11.646514 -39.100217 -37.371795 13.701384 -39.112805 81.296006 26.803414 5.789374 -3.041716 13.730226 5.320417 -178.738156 -19.053061 6.12381 176.347922 -30.202151 99.850643 -162.854843 -27.056107 58.690586 78.958654 47.430185 -92.580029 -58.785215 66.185513 -80.766032 80.165597 -39.197172 -108.954106 141.601128 3.959833 -172.714642 -157.317933 63.808145 12.723958 -97.05361 33.804141 -101.959181 -77.291517 -12.985814 -71.554583 82.247323 36.959678 -45.490479 30.529793 -7.395169 2.735418 102.161051 -45.77723 -154.085255 91.620224 75.088306 -88.16214 0.29948 3.945694 -162.520698 -146.666192 -43.278284 -52.964561 -97.068192 7.029774 -44.041761 -48.545641 -65.616991 -45.716123 20.782893 -20.767548 -45.375584 174.050802 -24.046622 -134.374735 54.490454 -12.658698 -6.652984 -11.473894 16.603551 -98.420878 131.993696 -10.37891 -7.527068 -89.602996 -40.611723 94.706963 -26.602762 47.668516 73.478401 119.968594 31.314782 128.33581 44.651479 36.775506 114.869805 -13.036157 52.857241 152.375367 -4.36533 3.176254 -168.741915 77.502995 -10.362285 -95.482759 -60.082189 4.827413 -92.772432 -0.768952 59.192696 -179.104738 8.24305 1.036336 103.014716 -57.329362 -48.719549 125.669984
-0.4124 60.5587 -0.1744 0.362646 -24.759889 6.145378 -4.844686 15.514084 1.103786 3.356769 -11.229398 -7.919481 5.426742 16.881319 90.414126 -35.867742 4.923859 -107.557767 -17.29531 -0.577925 3.798611 -6.912093 1.710937 -27.775292 71.698049 -81.948836 50.166843 74.007161 19.076803 -39.234745 -2.208938 30.981937 110.5473 -8.100027 15.765653 -3.528313 -13.685298 -3.709297 -12.745753 5.948974 15.458224 9.112509 -19.835506 31.670469 -9.393977 11.205907 -4.521342 53.779857 -24.104765 54.126546 29.837624 -26.460501 -13.666454 -33.516794 -156.518276 2.467773 -175.631074 -18.503311 -59.972385 -33.893959 -81.911938 -57.686164 -86.980807 16.669067 -51.269018 34.874205 67.937666 76.129506 -75.021662 -99.437762 -12.039233 -109.510723 27.073526 34.827774 -100.515536 -0.016412 -19.028556 10.43696 156.966756 -9.383644 -86.738037 89.63365 4.950501 -84.107726 -16.17346 -21.693554 -12.673941 0.4336 8.513645 16.327271 50.059466 69.15288 -33.838141 175.745153 9.299039 -137.631516 19.545714 -1.784822 0.143295 116.973361 43.210747 -167.131139 -178.014878 64.044712 153.174134 95.267812 -57.146849 81.979169 109.888173 78.993734 60.832696 177.23764 20.840886 -23.296063 -47.283613 63.693089 -39.594959 3.067035 -7.737367 93.000936 0.745843 -12.718912 3.383856 4.959078 -14.762296 82.026731 60.024494 9.035621 -30.928118 88.389601 -32.321624 -6.583926
-0.26580000000000004 66.687 -0.7755 -4.644394 -35.52375 10.500078 0.386434 19.459286 2.791741 2.450044 -14.553375 -2.370256 3.412415 30.099938 163.776618 -5.741879 46.18214 165.525793 10.441854 2.838308 30.339058 -8.920662 1.463805 -18.601398 -68.238864 -83.978503 -91.846436 84.503032 20.26372 -25.384062 163.209089 -39.647135 27.030714 -176.554818 -14.255098 144.601511 160.450076 8.365437 96.270023 126.748925 -74.170425 155.98541 34.766703 -66.804664 -6.865341 23.726542 32.980966 9.198734 39.51773 -82.532758 -15.449897 30.399087 21.275367 36.602581 11.211318 0.901112 -16.010531 -155.107853 59.645453 147.031886 0.472295 -18.415312 -12.124936 -155.170975 7.741306 -146.196489 154.196394 -4.830955 -159.892077 59.364334 12.156752 20.670303 -130.691997 -34.071544 122.763449 31.026028 48.810779 -3.988195 163.468458 -9.209776 -92.5294 87.395909 -80.967558 127.416618 16.905805 26.663428 -7.72184 32.213773 76.822073 15.042061 83.437664 -71.364654 110.885742 134.564631 -66.590419 -134.773135 102.932431 72.041273 -89.813324 -31.993097 -26.307073 -42.532817 20.3345 72.581512 -40.948955 68.540171 68.684631 -95.892554 45.888617 18.918096 44.907481 -97.563436 -14.053344 152.5481 -65.745742 -45.058042 -160.554981 -149.745885 -22.172322 107.56058 1.562588 -15.155894 -1.53135 4.988314 -28.390426 68.750965 73.320008 40.612423 176.096416 99.458867 -28.723592 174.353273
0.6553 71.19630000000001 -2.7073 -11.85687 -54.650323 16.775748 -2.329945 22.722632 0.810826 6.101642 -14.61206 3.226094 9.499314 29.172369 123.547123 -39.713014 35.213227 -140.867199 149.508944 -24.109825 76.16197 -1.442661 0.319423 -24.967934 5.252057 -0.295561 -4.708694 68.798858 5.947988 69.626424 137.630718 -4.172395 11.665059 -153.434454 25.711802 127.38314 5.901542 -26.021801 11.321893 -113.360747 -1.486203 139.869359 -28.97701 42.904181 14.262478 -178.461938 -1.576287 93.449988 21.505853 -23.58967 -15.445422 -80.077718 39.506618 68.75078 -126.192739 -15.629401 -158.878791 -137.0586 -40.781472 -166.051581 51.821577 81.32428 5.782651 -111.673462 -26.399939 -75.542821 27.739084 -87.600958 49.326074 -93.469239 16.269802 52.468671 19.795295 74.511394 -104.071681 8.293963 6.586404 13.237544 -3.052252 4.626953 -8.797736 41.508928 25.703406 -31.635261 12.724006 24.672627 -18.300331 12.563926 3.505407 101.73422 162.393666 -3.521109 -153.305463 25.294858 -59.69293 55.361931 142.322508 -37.132056 153.707374 -18.068621 -34.752886 30.628809 34.975361 28.253662 -55.592027 -168.915169 71.926303 110.209439 17.982637 2.418259 17.84522 -44.940963 -38.046932 -32.355122 4.487359 69.234332 -74.711914 39.59759 29.207692 37.756724 -49.433417 34.158545 -58.67462 105.408574 6.604213 88.184469 73.477697 60.253563 9.655947 -3.241265 -29.555012 -85.55412
